# This file uses centimeters as units for non-parametric coordinates.

mtllib Target.mtl
g default
v 2.816770 0.003143 0.527845
v 3.330754 0.002899 0.527845
v -0.006116 7.388137 -0.181181
v 0.681897 6.992253 -0.181181
v -0.006116 7.388137 -0.609828
v 0.681897 6.992253 -0.609828
v 2.816770 0.003143 0.099199
v 3.330754 0.002899 0.099199
v 1.987950 3.586008 0.181486
v 1.489615 3.441842 0.181486
v 1.489615 3.441842 -0.247161
v 1.987950 3.586008 -0.247161
v 1.401518 3.671228 0.158833
v 1.401518 3.671228 -0.269813
v 1.901430 3.815853 -0.269813
v 1.901430 3.815853 0.158833
v 1.973681 3.635332 0.736466
v 1.475345 3.491166 0.736466
v 1.887160 3.865177 0.713813
v 1.387249 3.720552 0.713813
v -0.262931 0.000000 -2.814169
v 0.262931 0.000000 -2.814169
v -0.262931 7.235788 -0.607387
v 0.262931 7.235788 -0.607387
v -0.262931 7.080364 -1.133250
v 0.262931 7.080364 -1.133250
v -0.262931 0.000000 -3.340031
v 0.262931 0.000000 -3.340031
v 2.524046 6.669478 -0.137650
v 2.147082 7.404437 -0.222440
v 1.559946 7.987704 -0.289730
v 0.820112 8.362184 -0.332932
v 0.000000 8.491221 -0.347819
v -0.820112 8.362184 -0.332932
v -1.559946 7.987704 -0.289730
v -2.147081 7.404437 -0.222440
v -2.524045 6.669478 -0.137650
v -2.653938 5.854770 -0.043660
v -2.524045 5.040061 0.050330
v -2.147081 4.305102 0.135120
v -1.559946 3.721836 0.202409
v -0.820112 3.347356 0.245611
v 0.000000 3.218319 0.260498
v 0.820112 3.347356 0.245611
v 1.559945 3.721836 0.202409
v 2.147081 4.305103 0.135120
v 2.524045 5.040061 0.050330
v 2.653938 5.854770 -0.043660
v 2.524046 6.774398 0.481097
v 2.147082 7.509357 0.396307
v 1.559946 8.092624 0.329018
v 0.820112 8.467104 0.285815
v 0.000000 8.596141 0.270929
v -0.820112 8.467104 0.285815
v -1.559946 8.092623 0.329018
v -2.147081 7.509356 0.396308
v -2.524045 6.774397 0.481097
v -2.653938 5.959689 0.575087
v -2.524045 5.144981 0.669077
v -2.147081 4.410022 0.753867
v -1.559946 3.826755 0.821157
v -0.820112 3.452275 0.864359
v 0.000000 3.323238 0.879246
v 0.820112 3.452275 0.864359
v 1.559945 3.826755 0.821157
v 2.147081 4.410022 0.753867
v 2.524045 5.144981 0.669077
v 2.653938 5.959689 0.575087
v 0.000000 5.854770 -0.043660
v 0.000000 5.959689 0.575087
v -2.816770 0.003143 0.527845
v -3.330754 0.002899 0.527845
v 0.006116 7.388137 -0.181181
v -0.681897 6.992253 -0.181181
v 0.006116 7.388137 -0.609828
v -0.681897 6.992253 -0.609828
v -2.816770 0.003143 0.099199
v -3.330754 0.002899 0.099199
v -1.987950 3.586008 0.181486
v -1.489615 3.441842 0.181486
v -1.489615 3.441842 -0.247161
v -1.987950 3.586008 -0.247161
v -1.401518 3.671228 0.158833
v -1.401518 3.671228 -0.269813
v -1.901430 3.815853 -0.269813
v -1.901430 3.815853 0.158833
v -1.973681 3.635332 0.736466
v -1.475345 3.491166 0.736466
v -1.887160 3.865177 0.713813
v -1.387249 3.720552 0.713813
vt 0.779711 0.150278
vt 0.805115 0.139458
vt 0.810736 0.360259
vt 0.781069 0.363299
vt 0.030514 0.150085
vt 0.030514 0.205740
vt 0.000460 0.205740
vt 0.000460 0.150085
vt 0.865110 0.363382
vt 0.835326 0.361855
vt 0.829705 0.141054
vt 0.857638 0.150686
vt 0.751209 0.153412
vt 0.752476 0.125372
vt 0.784178 0.121886
vt 0.756574 0.365992
vt 0.598207 0.102940
vt 0.635086 0.100810
vt 0.637092 0.118369
vt 0.600096 0.120505
vt 0.606737 0.322375
vt 0.603581 0.299706
vt 0.616743 0.299095
vt 0.619898 0.321764
vt 0.618834 0.349531
vt 0.605675 0.350055
vt 0.604480 0.372911
vt 0.617639 0.372388
vt 0.816021 0.775910
vt 0.838954 0.773429
vt 0.843771 0.988030
vt 0.820839 0.990512
vt 0.920954 0.988881
vt 0.893241 0.956377
vt 0.889799 0.772406
vt 0.917742 0.774249
vt 0.866809 0.770543
vt 0.870250 0.954513
vt 0.595918 0.063318
vt 0.632797 0.061188
vt 0.650330 0.060176
vt 0.652619 0.099797
vt 0.687326 0.058039
vt 0.689614 0.097661
vt 0.578376 0.064331
vt 0.580664 0.103953
vt 0.144205 0.050739
vt 0.178402 0.054229
vt 0.128192 0.546169
vt 0.093995 0.542678
vt 0.016756 0.563976
vt 0.000460 0.533709
vt 0.032021 0.516716
vt 0.048317 0.546983
vt 0.066239 0.519997
vt 0.078296 0.034144
vt 0.112513 0.037425
vt 0.071246 0.000500
vt 0.044652 0.041193
vt 0.037601 0.007549
vt 0.213677 0.195973
vt 0.212475 0.248875
vt 0.167894 0.256802
vt 0.169241 0.189712
vt 0.228026 0.301129
vt 0.186905 0.321088
vt 0.257331 0.348526
vt 0.222029 0.377786
vt 0.297129 0.387956
vt 0.269765 0.424107
vt 0.345321 0.415710
vt 0.327349 0.457613
vt 0.398017 0.429671
vt 0.392153 0.474541
vt 0.450686 0.426739
vt 0.459427 0.470605
vt 0.497207 0.405439
vt 0.520928 0.443004
vt 0.531322 0.368183
vt 0.567299 0.394684
vt 0.550202 0.319631
vt 0.593486 0.332942
vt 0.553926 0.264749
vt 0.599871 0.266769
vt 0.546842 0.208699
vt 0.592911 0.203007
vt 0.533583 0.151128
vt 0.579055 0.141364
vt 0.518225 0.092055
vt 0.563817 0.081062
vt 0.485940 0.047518
vt 0.425637 0.055892
vt 0.416992 0.010211
vt 0.478608 0.001176
vt 0.367881 0.066066
vt 0.354633 0.021674
vt 0.314506 0.082316
vt 0.293390 0.041684
vt 0.267297 0.109172
vt 0.236404 0.076228
vt 0.232526 0.147958
vt 0.192812 0.127179
vt 0.630256 0.371422
vt 0.698546 0.360606
vt 0.698546 0.581595
vt 0.568652 0.402811
vt 0.519762 0.451701
vt 0.488373 0.513306
vt 0.477557 0.581595
vt 0.488373 0.649884
vt 0.519762 0.711489
vt 0.568652 0.760379
vt 0.630256 0.791768
vt 0.698546 0.802584
vt 0.766835 0.791768
vt 0.828440 0.760379
vt 0.877329 0.711489
vt 0.908719 0.649884
vt 0.919535 0.581595
vt 0.908719 0.513306
vt 0.877329 0.451701
vt 0.828440 0.402811
vt 0.766835 0.371422
vt 0.201770 0.507567
vt 0.270059 0.496751
vt 0.270059 0.717740
vt 0.338348 0.507567
vt 0.399953 0.538956
vt 0.448843 0.587846
vt 0.480232 0.649451
vt 0.491048 0.717740
vt 0.480232 0.786029
vt 0.448843 0.847634
vt 0.399953 0.896524
vt 0.338348 0.927913
vt 0.270059 0.938729
vt 0.201770 0.927913
vt 0.140165 0.896524
vt 0.091275 0.847634
vt 0.059886 0.786029
vt 0.049070 0.717740
vt 0.059886 0.649451
vt 0.091275 0.587846
vt 0.140165 0.538956
vt 0.779711 0.150278
vt 0.781069 0.363299
vt 0.810736 0.360259
vt 0.805115 0.139458
vt 0.030514 0.150085
vt 0.000460 0.150085
vt 0.000460 0.205740
vt 0.030514 0.205740
vt 0.865110 0.363382
vt 0.857638 0.150686
vt 0.829705 0.141054
vt 0.835326 0.361855
vt 0.751209 0.153412
vt 0.784178 0.121886
vt 0.752476 0.125372
vt 0.756574 0.365992
vt 0.598207 0.102940
vt 0.600096 0.120505
vt 0.637092 0.118369
vt 0.635086 0.100810
vt 0.606737 0.322375
vt 0.619898 0.321764
vt 0.616743 0.299095
vt 0.603581 0.299706
vt 0.605675 0.350055
vt 0.618834 0.349531
vt 0.604480 0.372911
vt 0.617639 0.372388
vt 0.816021 0.775910
vt 0.820839 0.990512
vt 0.843771 0.988030
vt 0.838954 0.773429
vt 0.920954 0.988881
vt 0.917742 0.774249
vt 0.889799 0.772406
vt 0.893241 0.956377
vt 0.866809 0.770543
vt 0.870250 0.954513
vt 0.595918 0.063318
vt 0.632797 0.061188
vt 0.652619 0.099797
vt 0.650330 0.060176
vt 0.689614 0.097661
vt 0.687326 0.058039
vt 0.578376 0.064331
vt 0.580664 0.103953
vn -0.013247 0.093178 0.995561
vn -0.013247 0.093178 0.995561
vn -0.013247 0.093178 0.995561
vn -0.013247 0.093178 0.995561
vn 0.498732 0.866756 0.000000
vn 0.498732 0.866756 0.000000
vn 0.498732 0.866756 0.000000
vn 0.498732 0.866756 0.000000
vn 0.014117 -0.092849 -0.995580
vn 0.013964 -0.092907 -0.995577
vn 0.013247 -0.093178 -0.995561
vn 0.013247 -0.093178 -0.995561
vn -0.000475 -1.000000 0.000000
vn -0.000475 -1.000000 0.000000
vn -0.000475 -1.000000 0.000000
vn -0.000475 -1.000000 0.000000
vn 0.936403 0.350926 0.000000
vn 0.936403 0.350926 0.000000
vn 0.936367 0.351022 0.000000
vn 0.936359 0.351045 -0.000511
vn -0.932929 -0.360061 0.000000
vn -0.932929 -0.360061 0.000000
vn -0.933020 -0.359823 0.000572
vn -0.932972 -0.359949 0.000000
vn -0.025602 0.088498 0.995747
vn -0.025602 0.088498 0.995747
vn -0.025602 0.088498 0.995747
vn -0.025602 0.088498 0.995747
vn -0.932972 -0.359949 0.000000
vn -0.933020 -0.359823 0.000572
vn -0.934978 -0.354705 0.000565
vn -0.935101 -0.354382 0.000000
vn -0.019802 -0.105628 -0.994209
vn -0.019209 -0.105405 -0.994244
vn 0.013964 -0.092907 -0.995577
vn 0.014117 -0.092849 -0.995580
vn 0.936359 0.351045 -0.000511
vn 0.936367 0.351022 0.000000
vn 0.933693 0.358076 0.000000
vn 0.933944 0.357418 -0.000602
vn -0.935101 -0.354382 0.000000
vn -0.934978 -0.354705 0.000565
vn -0.935183 -0.354164 0.000000
vn -0.935183 -0.354164 0.000000
vn -0.022560 -0.106661 -0.994039
vn -0.022560 -0.106661 -0.994040
vn -0.019209 -0.105405 -0.994244
vn -0.019802 -0.105628 -0.994209
vn 0.933944 0.357418 -0.000602
vn 0.933693 0.358076 0.000000
vn 0.933558 0.358426 0.000000
vn 0.933558 0.358426 0.000000
vn 0.022560 0.106661 0.994040
vn 0.022560 0.106661 0.994040
vn 0.022560 0.106661 0.994040
vn 0.022560 0.106661 0.994039
vn 0.276718 -0.956525 0.092127
vn 0.276718 -0.956525 0.092127
vn 0.276718 -0.956525 0.092127
vn 0.276718 -0.956525 0.092127
vn 0.936359 0.351045 -0.000511
vn 0.933944 0.357418 -0.000602
vn 0.936098 0.351667 -0.007186
vn 0.936098 0.351667 -0.007186
vn -0.276724 0.956523 -0.092127
vn -0.276724 0.956523 -0.092127
vn -0.276724 0.956523 -0.092127
vn -0.276724 0.956523 -0.092127
vn -0.934978 -0.354705 0.000565
vn -0.933020 -0.359823 0.000572
vn -0.933750 -0.357841 0.007795
vn -0.933750 -0.357841 0.007795
vn 0.000000 -0.291716 0.956505
vn 0.000000 -0.291716 0.956505
vn 0.000000 -0.291716 0.956505
vn 0.000000 -0.291716 0.956505
vn 0.000000 0.958990 -0.283440
vn 0.000000 0.958990 -0.283440
vn 0.000000 0.958990 -0.283440
vn 0.000000 0.958990 -0.283440
vn 0.000000 0.297558 -0.954704
vn 0.000000 0.297558 -0.954704
vn 0.000000 0.297558 -0.954704
vn 0.000000 0.297558 -0.954704
vn 0.000000 -1.000000 0.000000
vn 0.000000 -1.000000 0.000000
vn 0.000000 -1.000000 0.000000
vn 0.000000 -1.000000 0.000000
vn 1.000000 0.000000 0.000000
vn 1.000000 0.000000 0.000000
vn 1.000000 0.000000 0.000000
vn 1.000000 0.000000 0.000000
vn -1.000000 0.000000 0.000000
vn -1.000000 0.000000 0.000000
vn -1.000000 0.000000 0.000000
vn -1.000000 0.000000 0.000000
vn 0.890747 0.448102 -0.075984
vn 0.890747 0.448102 -0.075984
vn 0.890747 0.448102 -0.075984
vn 0.890747 0.448102 -0.075984
vn 0.809105 0.579393 -0.098246
vn 0.587725 0.797674 -0.135260
vn 0.586759 0.798365 -0.135377
vn 0.808138 0.580704 -0.098469
vn 0.587725 0.797674 -0.135260
vn 0.308920 0.937703 -0.159004
vn 0.308324 0.937893 -0.159036
vn 0.586759 0.798365 -0.135377
vn 0.308920 0.937703 -0.159004
vn 0.000000 0.985926 -0.167181
vn 0.000000 0.985926 -0.167181
vn 0.308324 0.937893 -0.159036
vn 0.000000 0.985926 -0.167181
vn -0.308921 0.937702 -0.159004
vn -0.308324 0.937893 -0.159036
vn 0.000000 0.985926 -0.167181
vn -0.308921 0.937702 -0.159004
vn -0.587725 0.797674 -0.135260
vn -0.586759 0.798365 -0.135377
vn -0.308324 0.937893 -0.159036
vn -0.587725 0.797674 -0.135260
vn -0.809106 0.579393 -0.098246
vn -0.808138 0.580704 -0.098469
vn -0.586759 0.798365 -0.135377
vn -0.809106 0.579393 -0.098246
vn -0.951227 0.304150 -0.051574
vn -0.950628 0.305964 -0.051881
vn -0.808138 0.580704 -0.098469
vn -0.951227 0.304150 -0.051574
vn -1.000000 -0.001003 0.000170
vn -1.000000 0.001003 -0.000170
vn -0.950628 0.305964 -0.051881
vn -1.000000 -0.001003 0.000170
vn -0.950628 -0.305964 0.051882
vn -0.951227 -0.304150 0.051574
vn -1.000000 0.001003 -0.000170
vn -0.950628 -0.305964 0.051882
vn -0.808138 -0.580704 0.098468
vn -0.809105 -0.579393 0.098246
vn -0.951227 -0.304150 0.051574
vn -0.808138 -0.580704 0.098468
vn -0.586759 -0.798365 0.135377
vn -0.587725 -0.797674 0.135260
vn -0.809105 -0.579393 0.098246
vn -0.586759 -0.798365 0.135377
vn -0.308324 -0.937893 0.159036
vn -0.308921 -0.937702 0.159004
vn -0.587725 -0.797674 0.135260
vn -0.308324 -0.937893 0.159036
vn 0.000000 -0.985926 0.167181
vn 0.000000 -0.985926 0.167181
vn -0.308921 -0.937702 0.159004
vn 0.000000 -0.985926 0.167181
vn 0.308324 -0.937893 0.159036
vn 0.308921 -0.937702 0.159004
vn 0.000000 -0.985926 0.167181
vn 0.308324 -0.937893 0.159036
vn 0.586759 -0.798365 0.135377
vn 0.587725 -0.797674 0.135260
vn 0.308921 -0.937702 0.159004
vn 0.586759 -0.798365 0.135377
vn 0.808138 -0.580704 0.098469
vn 0.809105 -0.579393 0.098246
vn 0.587725 -0.797674 0.135260
vn 0.808138 -0.580704 0.098469
vn 0.950628 -0.305964 0.051882
vn 0.951227 -0.304150 0.051574
vn 0.809105 -0.579393 0.098246
vn 0.950628 -0.305964 0.051882
vn 1.000000 -0.001004 0.000170
vn 1.000000 0.001002 -0.000170
vn 0.951227 -0.304150 0.051574
vn 1.000000 -0.001004 0.000170
vn 0.951227 0.304149 -0.051574
vn 0.950629 0.305963 -0.051882
vn 1.000000 0.001002 -0.000170
vn 0.000000 -0.114606 -0.993411
vn 0.000000 -0.114606 -0.993411
vn 0.000000 -0.114606 -0.993411
vn 0.000000 -0.114606 -0.993411
vn 0.000000 -0.114606 -0.993411
vn 0.000000 -0.114606 -0.993411
vn 0.000000 -0.114606 -0.993411
vn 0.000000 -0.114606 -0.993411
vn 0.000000 -0.114606 -0.993411
vn 0.000000 -0.114606 -0.993411
vn 0.000000 -0.114606 -0.993411
vn 0.000000 -0.114606 -0.993411
vn 0.000000 -0.114606 -0.993411
vn 0.000000 -0.114606 -0.993411
vn 0.000000 -0.114606 -0.993411
vn 0.000000 -0.114606 -0.993411
vn 0.000000 -0.114606 -0.993411
vn 0.000000 -0.114606 -0.993411
vn 0.000000 -0.114606 -0.993411
vn 0.000000 -0.114606 -0.993411
vn 0.000000 -0.114606 -0.993411
vn 0.000000 -0.114606 -0.993411
vn 0.000000 -0.114606 -0.993411
vn 0.000000 -0.114606 -0.993411
vn 0.000000 -0.114606 -0.993411
vn 0.000000 -0.114606 -0.993411
vn 0.000000 -0.114606 -0.993411
vn 0.000000 -0.114606 -0.993411
vn 0.000000 -0.114606 -0.993411
vn 0.000000 -0.114606 -0.993411
vn 0.000000 -0.114606 -0.993411
vn 0.000000 -0.114606 -0.993411
vn 0.000000 -0.114606 -0.993411
vn 0.000000 -0.114606 -0.993411
vn 0.000000 -0.114606 -0.993411
vn 0.000000 -0.114606 -0.993411
vn 0.000000 -0.114606 -0.993411
vn 0.000000 -0.114606 -0.993411
vn 0.000000 -0.114606 -0.993411
vn 0.000000 -0.114606 -0.993411
vn 0.000000 -0.114606 -0.993411
vn 0.000000 -0.114606 -0.993411
vn 0.000000 -0.114606 -0.993411
vn 0.000000 -0.114606 -0.993411
vn 0.000000 -0.114606 -0.993411
vn 0.000000 -0.114606 -0.993411
vn 0.000000 -0.114606 -0.993411
vn 0.000000 -0.114606 -0.993411
vn 0.000000 -0.114606 -0.993411
vn 0.000000 -0.114606 -0.993411
vn 0.000000 -0.114606 -0.993411
vn 0.000000 -0.114606 -0.993411
vn 0.000000 -0.114606 -0.993411
vn 0.000000 -0.114606 -0.993411
vn 0.000000 -0.114606 -0.993411
vn 0.000000 -0.114606 -0.993411
vn 0.000000 -0.114606 -0.993411
vn 0.000000 -0.114606 -0.993411
vn 0.000000 -0.114606 -0.993411
vn 0.000000 -0.114606 -0.993411
vn 0.000000 0.114606 0.993411
vn 0.000000 0.114606 0.993411
vn 0.000000 0.114606 0.993411
vn 0.000000 0.114606 0.993411
vn 0.000000 0.114606 0.993411
vn 0.000000 0.114606 0.993411
vn 0.000000 0.114606 0.993411
vn 0.000000 0.114606 0.993411
vn 0.000000 0.114606 0.993411
vn 0.000000 0.114606 0.993411
vn 0.000000 0.114606 0.993411
vn 0.000000 0.114606 0.993411
vn 0.000000 0.114606 0.993411
vn 0.000000 0.114606 0.993411
vn 0.000000 0.114606 0.993411
vn 0.000000 0.114606 0.993411
vn 0.000000 0.114606 0.993411
vn 0.000000 0.114606 0.993411
vn 0.000000 0.114606 0.993411
vn 0.000000 0.114606 0.993411
vn 0.000000 0.114606 0.993411
vn 0.000000 0.114606 0.993411
vn 0.000000 0.114606 0.993411
vn 0.000000 0.114606 0.993411
vn 0.000000 0.114606 0.993411
vn 0.000000 0.114606 0.993411
vn 0.000000 0.114606 0.993411
vn 0.000000 0.114606 0.993411
vn 0.000000 0.114606 0.993411
vn 0.000000 0.114606 0.993411
vn 0.000000 0.114606 0.993411
vn 0.000000 0.114606 0.993411
vn 0.000000 0.114606 0.993411
vn 0.000000 0.114606 0.993411
vn 0.000000 0.114606 0.993411
vn 0.000000 0.114606 0.993411
vn 0.000000 0.114606 0.993411
vn 0.000000 0.114606 0.993411
vn 0.000000 0.114606 0.993411
vn 0.000000 0.114606 0.993411
vn 0.000000 0.114606 0.993411
vn 0.000000 0.114606 0.993411
vn 0.000000 0.114606 0.993411
vn 0.000000 0.114606 0.993411
vn 0.000000 0.114606 0.993411
vn 0.000000 0.114606 0.993411
vn 0.000000 0.114606 0.993411
vn 0.000000 0.114606 0.993411
vn 0.000000 0.114606 0.993411
vn 0.000000 0.114606 0.993411
vn 0.000000 0.114606 0.993411
vn 0.000000 0.114606 0.993411
vn 0.000000 0.114606 0.993411
vn 0.000000 0.114606 0.993411
vn 0.000000 0.114606 0.993411
vn 0.000000 0.114606 0.993411
vn 0.000000 0.114606 0.993411
vn 0.000000 0.114606 0.993411
vn 0.000000 0.114606 0.993411
vn 0.000000 0.114606 0.993411
vn 0.013247 0.093178 0.995561
vn 0.013247 0.093178 0.995561
vn 0.013247 0.093178 0.995561
vn 0.013247 0.093178 0.995561
vn -0.498732 0.866756 0.000000
vn -0.498732 0.866756 0.000000
vn -0.498732 0.866756 0.000000
vn -0.498732 0.866756 0.000000
vn -0.014117 -0.092849 -0.995580
vn -0.013247 -0.093178 -0.995561
vn -0.013247 -0.093178 -0.995561
vn -0.013964 -0.092907 -0.995577
vn 0.000475 -1.000000 0.000000
vn 0.000475 -1.000000 0.000000
vn 0.000475 -1.000000 0.000000
vn 0.000475 -1.000000 0.000000
vn -0.936403 0.350926 0.000000
vn -0.936359 0.351045 -0.000511
vn -0.936367 0.351022 0.000000
vn -0.936403 0.350926 0.000000
vn 0.932929 -0.360061 0.000000
vn 0.932972 -0.359949 0.000000
vn 0.933020 -0.359823 0.000572
vn 0.932929 -0.360061 0.000000
vn 0.025602 0.088498 0.995747
vn 0.025602 0.088498 0.995747
vn 0.025602 0.088498 0.995747
vn 0.025602 0.088498 0.995747
vn 0.932972 -0.359949 0.000000
vn 0.935101 -0.354382 0.000000
vn 0.934978 -0.354705 0.000565
vn 0.933020 -0.359823 0.000572
vn 0.019802 -0.105628 -0.994209
vn -0.014117 -0.092849 -0.995580
vn -0.013964 -0.092907 -0.995577
vn 0.019209 -0.105405 -0.994244
vn -0.936359 0.351045 -0.000511
vn -0.933944 0.357418 -0.000602
vn -0.933693 0.358076 0.000000
vn -0.936367 0.351022 0.000000
vn 0.935101 -0.354382 0.000000
vn 0.935183 -0.354164 0.000000
vn 0.935183 -0.354164 0.000000
vn 0.934978 -0.354705 0.000565
vn 0.022560 -0.106661 -0.994039
vn 0.019802 -0.105628 -0.994209
vn 0.019209 -0.105405 -0.994244
vn 0.022560 -0.106661 -0.994040
vn -0.933944 0.357418 -0.000602
vn -0.933558 0.358426 0.000000
vn -0.933558 0.358426 0.000000
vn -0.933693 0.358076 0.000000
vn -0.022560 0.106661 0.994040
vn -0.022560 0.106661 0.994039
vn -0.022560 0.106661 0.994040
vn -0.022560 0.106661 0.994040
vn -0.276718 -0.956525 0.092127
vn -0.276718 -0.956525 0.092127
vn -0.276718 -0.956525 0.092127
vn -0.276718 -0.956525 0.092127
vn -0.936359 0.351045 -0.000511
vn -0.936098 0.351667 -0.007186
vn -0.936098 0.351667 -0.007186
vn -0.933944 0.357418 -0.000602
vn 0.276724 0.956523 -0.092127
vn 0.276724 0.956523 -0.092127
vn 0.276724 0.956523 -0.092127
vn 0.276724 0.956523 -0.092127
vn 0.934978 -0.354705 0.000565
vn 0.933750 -0.357841 0.007795
vn 0.933750 -0.357841 0.007795
vn 0.933020 -0.359823 0.000572
s off
g polySurface1
usemtl lambert2SG
f 1/1/1 2/2/2 9/3/3 10/4/4
f 3/5/5 4/6/6 6/7/7 5/8/8
f 11/9/9 12/10/10 8/11/11 7/12/12
f 7/13/13 8/14/14 2/15/15 1/1/16
f 2/2/17 8/11/18 12/10/19 9/3/20
f 7/13/21 1/1/22 10/4/23 11/16/24
f 18/17/25 17/18/26 19/19/27 20/20/28
f 11/21/29 10/22/30 13/23/31 14/24/32
f 14/24/33 15/25/34 12/26/35 11/21/36
f 9/27/37 12/26/38 15/25/39 16/28/40
f 14/29/41 13/30/42 3/31/43 5/32/44
f 5/33/45 6/34/46 15/35/47 14/36/48
f 16/37/49 15/35/50 6/34/51 4/38/52
f 13/30/53 16/37/54 4/38/55 3/31/56
f 10/39/57 9/40/58 17/18/59 18/17/60
f 9/40/61 16/41/62 19/42/63 17/18/64
f 16/41/65 13/43/66 20/44/67 19/42/68
f 13/45/69 10/39/70 18/17/71 20/46/72
f 21/47/73 22/48/74 24/49/75 23/50/76
f 23/51/77 24/52/78 26/53/79 25/54/80
f 25/55/81 26/53/82 28/56/83 27/57/84
f 27/58/85 28/56/86 22/59/87 21/60/88
f 22/59/89 28/56/90 26/53/91 24/52/92
f 27/57/93 21/47/94 23/50/95 25/55/96
f 29/61/97 30/62/98 50/63/99 49/64/100
f 30/62/101 31/65/102 51/66/103 50/63/104
f 31/65/105 32/67/106 52/68/107 51/66/108
f 32/67/109 33/69/110 53/70/111 52/68/112
f 33/69/113 34/71/114 54/72/115 53/70/116
f 34/71/117 35/73/118 55/74/119 54/72/120
f 35/73/121 36/75/122 56/76/123 55/74/124
f 36/75/125 37/77/126 57/78/127 56/76/128
f 37/77/129 38/79/130 58/80/131 57/78/132
f 38/79/133 39/81/134 59/82/135 58/80/136
f 39/81/137 40/83/138 60/84/139 59/82/140
f 40/83/141 41/85/142 61/86/143 60/84/144
f 41/85/145 42/87/146 62/88/147 61/86/148
f 42/87/149 43/89/150 63/90/151 62/88/152
f 43/91/153 44/92/154 64/93/155 63/94/156
f 44/92/157 45/95/158 65/96/159 64/93/160
f 45/95/161 46/97/162 66/98/163 65/96/164
f 46/97/165 47/99/166 67/100/167 66/98/168
f 47/99/169 48/101/170 68/102/171 67/100/172
f 48/101/173 29/61/174 49/64/175 68/102/176
f 30/103/177 29/104/178 69/105/179
f 31/106/180 30/103/181 69/105/182
f 32/107/183 31/106/184 69/105/185
f 33/108/186 32/107/187 69/105/188
f 34/109/189 33/108/190 69/105/191
f 35/110/192 34/109/193 69/105/194
f 36/111/195 35/110/196 69/105/197
f 37/112/198 36/111/199 69/105/200
f 38/113/201 37/112/202 69/105/203
f 39/114/204 38/113/205 69/105/206
f 40/115/207 39/114/208 69/105/209
f 41/116/210 40/115/211 69/105/212
f 42/117/213 41/116/214 69/105/215
f 43/118/216 42/117/217 69/105/218
f 44/119/219 43/118/220 69/105/221
f 45/120/222 44/119/223 69/105/224
f 46/121/225 45/120/226 69/105/227
f 47/122/228 46/121/229 69/105/230
f 48/123/231 47/122/232 69/105/233
f 29/104/234 48/123/235 69/105/236
f 49/124/237 50/125/238 70/126/239
f 50/125/240 51/127/241 70/126/242
f 51/127/243 52/128/244 70/126/245
f 52/128/246 53/129/247 70/126/248
f 53/129/249 54/130/250 70/126/251
f 54/130/252 55/131/253 70/126/254
f 55/131/255 56/132/256 70/126/257
f 56/132/258 57/133/259 70/126/260
f 57/133/261 58/134/262 70/126/263
f 58/134/264 59/135/265 70/126/266
f 59/135/267 60/136/268 70/126/269
f 60/136/270 61/137/271 70/126/272
f 61/137/273 62/138/274 70/126/275
f 62/138/276 63/139/277 70/126/278
f 63/139/279 64/140/280 70/126/281
f 64/140/282 65/141/283 70/126/284
f 65/141/285 66/142/286 70/126/287
f 66/142/288 67/143/289 70/126/290
f 67/143/291 68/144/292 70/126/293
f 68/144/294 49/124/295 70/126/296
f 71/145/297 80/146/298 79/147/299 72/148/300
f 73/149/301 75/150/302 76/151/303 74/152/304
f 81/153/305 77/154/306 78/155/307 82/156/308
f 77/157/309 71/145/310 72/158/311 78/159/312
f 72/148/313 79/147/314 82/156/315 78/155/316
f 77/157/317 81/160/318 80/146/319 71/145/320
f 88/161/321 90/162/322 89/163/323 87/164/324
f 81/165/325 84/166/326 83/167/327 80/168/328
f 84/166/329 81/165/330 82/169/331 85/170/332
f 79/171/333 86/172/334 85/170/335 82/169/336
f 84/173/337 75/174/338 73/175/339 83/176/340
f 75/177/341 84/178/342 85/179/343 76/180/344
f 86/181/345 74/182/346 76/180/347 85/179/348
f 83/176/349 73/175/350 74/182/351 86/181/352
f 80/183/353 88/161/354 87/164/355 79/184/356
f 79/184/357 87/164/358 89/185/359 86/186/360
f 86/186/361 89/185/362 90/187/363 83/188/364
f 83/189/365 90/190/366 88/161/367 80/183/368
